<svg xmlns="http://www.w3.org/2000/svg" version="1.1" xmlns:xlink="http://www.w3.org/1999/xlink" xmlns:svgjs="http://svgjs.dev/svgjs" width="1000" height="1000"><g clip-path="url(#SvgjsClipPath1147)"><rect width="1000" height="1000" fill="#222327"></rect><g transform="matrix(33.333333333333336,0,0,33.333333333333336,100,100)"><svg xmlns="http://www.w3.org/2000/svg" version="1.1" xmlns:xlink="http://www.w3.org/1999/xlink" xmlns:svgjs="http://svgjs.dev/svgjs" width="24" height="24"><svg id="Laag_1" xmlns="http://www.w3.org/2000/svg" version="1.1" viewBox="0 0 24 24">
  <!-- Generator: Adobe Illustrator 29.0.0, SVG Export Plug-In . SVG Version: 2.1.0 Build 186)  -->
  <defs>
    <style>
      .st0 {
        fill: #222327;
      }

      .st1 {
        fill: #29fd53;
      }
    </style>
  <clipPath id="SvgjsClipPath1147"><rect width="1000" height="1000" x="0" y="0" rx="400" ry="400"></rect></clipPath></defs>
  <rect class="st0" width="24" height="24" rx="1" ry="1"></rect>
  <path class="st1" d="M21,20c0,.6-.4,1-1,1H4c-.6,0-1-.4-1-1v-10.7c0-.3.1-.6.4-.8L11.4,2.2c.4-.3.9-.3,1.2,0l8,6.3c.2.2.4.5.4.8v10.7ZM7,12c0,2.8,2.2,5,5,5s5-2.2,5-5h-2c0,1.7-1.3,3-3,3s-3-1.3-3-3h-2Z"></path>
</svg></svg></g></g></svg>